<?xml version="1.0" standalone="no"?>
<!DOCTYPE svg PUBLIC "-//W3C//DTD SVG 20010904//EN"
 "http://www.w3.org/TR/2001/REC-SVG-20010904/DTD/svg10.dtd">
<svg version="1.0" xmlns="http://www.w3.org/2000/svg"
 width="600.000000pt" height="600.000000pt" viewBox="0 0 600.000000 600.000000"
 preserveAspectRatio="xMidYMid meet">
<metadata>
Created by potrace 1.11, written by Peter Selinger 2001-2013
</metadata>
<g transform="translate(0.000000,600.000000) scale(0.100000,-0.100000)"
fill="#000000" stroke="none">
<path d="M1736 5922 c-4 -7 -13 -9 -19 -6 -7 4 -9 4 -5 -1 4 -4 3 -14 -4 -22
-7 -9 -8 -13 -1 -11 6 2 10 -1 10 -7 -1 -5 -6 -9 -11 -7 -5 2 -4 -3 2 -11 7
-8 10 -22 6 -31 -4 -10 -1 -16 7 -17 8 0 5 -4 -6 -9 -18 -8 -18 -9 -2 -9 14
-1 16 -5 7 -20 -7 -14 -7 -22 0 -26 8 -5 7 -11 -1 -21 -9 -11 -8 -14 2 -14 11
0 11 -2 -1 -10 -13 -9 -13 -11 0 -20 14 -9 7 -15 -14 -11 -5 1 -4 -5 4 -13 7
-9 9 -16 5 -16 -4 0 -2 -6 4 -14 8 -10 9 -16 1 -21 -5 -3 -10 -11 -10 -16 0
-6 5 -7 12 -3 7 5 8 3 2 -7 -13 -22 -16 -51 -3 -43 8 4 8 1 1 -12 -15 -28 -15
-36 0 -45 7 -5 8 -9 2 -9 -6 0 -10 -10 -9 -22 1 -13 -3 -26 -9 -30 -7 -5 -3
-8 9 -8 15 0 16 -3 7 -12 -15 -15 -16 -32 -1 -22 7 4 6 -3 -2 -17 -15 -28 -15
-29 3 -40 7 -5 8 -9 2 -9 -6 0 -10 -10 -9 -22 1 -13 -3 -26 -9 -30 -7 -5 -3
-8 9 -8 15 0 16 -3 7 -12 -15 -15 -16 -32 -1 -22 7 4 7 -1 -1 -16 -9 -18 -9
-24 0 -30 9 -6 8 -9 -6 -13 -17 -4 -17 -5 -1 -6 14 -1 16 -5 7 -20 -7 -14 -7
-22 0 -26 8 -5 7 -11 -1 -21 -9 -11 -8 -14 2 -14 11 0 11 -2 -1 -10 -13 -9
-13 -11 0 -20 14 -9 7 -15 -14 -11 -5 1 -4 -5 4 -13 7 -9 9 -16 5 -16 -4 0 -2
-6 4 -14 8 -10 9 -16 1 -21 -5 -3 -10 -11 -10 -16 0 -6 5 -7 12 -3 7 5 8 3 2
-7 -13 -22 -16 -51 -3 -43 7 4 6 -2 -2 -17 -15 -28 -15 -29 3 -40 7 -5 8 -9 2
-9 -6 0 -10 -10 -9 -22 1 -13 -3 -26 -9 -30 -7 -5 -3 -8 8 -8 16 0 17 -3 8
-12 -15 -15 -16 -32 -1 -22 7 4 7 -1 -1 -16 -9 -18 -9 -24 0 -30 9 -6 8 -9 -6
-13 -17 -4 -17 -5 -1 -6 14 -1 16 -5 7 -20 -7 -14 -7 -22 0 -26 8 -5 7 -11 -1
-21 -9 -11 -8 -14 2 -14 11 0 11 -2 -1 -10 -13 -9 -13 -11 0 -20 14 -9 7 -15
-14 -11 -5 1 -4 -5 4 -13 7 -9 9 -16 5 -16 -4 0 -2 -6 4 -14 8 -10 9 -16 1
-21 -5 -3 -10 -11 -10 -16 0 -6 5 -7 12 -3 7 5 8 3 2 -7 -14 -23 -15 -51 -2
-44 7 4 5 0 -5 -8 -17 -14 -17 -15 0 -21 15 -6 15 -8 3 -16 -11 -7 -12 -10 -2
-10 8 0 10 -5 6 -12 -5 -8 0 -7 11 2 10 8 16 10 12 4 -4 -7 4 -11 22 -10 24 1
27 4 18 15 -10 12 -9 13 1 7 8 -5 19 -1 28 10 9 11 13 13 9 7 -3 -7 -1 -13 4
-13 6 0 11 8 11 17 0 9 3 13 7 10 3 -4 16 1 27 10 12 10 15 11 9 3 -7 -8 -13
-19 -13 -24 0 -6 8 1 17 14 10 14 17 29 15 34 -2 5 4 4 12 -4 16 -12 21 -5 17
22 0 4 5 5 13 2 8 -3 17 0 21 6 5 8 10 8 20 0 10 -8 13 -6 11 7 0 10 5 17 12
16 6 -2 12 5 12 15 0 13 2 14 9 3 6 -9 11 -10 15 -2 4 6 12 8 18 5 6 -4 9 -3
6 2 -7 10 11 29 30 30 6 1 19 2 27 3 8 0 15 8 15 16 0 8 7 15 16 15 9 0 12 5
8 13 -5 8 -2 8 9 -2 15 -12 17 -11 17 3 0 10 4 15 9 11 5 -3 12 -1 16 5 4 6
10 8 15 5 5 -3 11 -1 15 5 4 6 11 7 17 4 7 -4 8 -2 4 5 -4 6 0 14 8 17 9 3 14
10 11 15 -3 4 4 6 15 4 11 -2 20 1 20 7 0 6 9 8 19 5 15 -3 18 -1 14 11 -5 12
-2 14 12 8 11 -4 16 -4 13 0 -10 9 37 45 54 42 7 -2 12 2 11 9 -2 7 4 10 12 7
8 -4 15 -1 15 5 0 6 6 10 13 8 6 -1 11 3 10 10 -2 7 4 10 12 7 8 -4 18 1 21
10 5 12 10 14 19 6 10 -8 15 -8 21 1 5 8 3 9 -6 4 -9 -6 -11 -4 -5 4 4 7 16
10 27 8 16 -5 17 -3 7 9 -10 12 -9 13 6 8 14 -6 16 -4 10 6 -5 8 -4 11 3 6 6
-3 13 -2 17 4 4 6 11 8 16 5 5 -4 9 -1 9 5 0 6 5 8 12 4 7 -5 9 -2 5 9 -4 12
-2 14 10 10 12 -5 14 -3 8 8 -8 12 -6 12 8 0 15 -12 17 -11 17 3 0 10 5 14 10
11 6 -3 13 1 16 9 3 9 10 16 16 16 5 0 6 -6 3 -12 -4 -7 2 -2 12 10 11 13 31
25 45 25 14 1 24 5 21 10 -2 4 3 10 11 13 9 3 13 11 9 18 -4 6 0 5 9 -2 14
-11 18 -10 28 8 6 12 17 20 23 17 13 -5 39 17 31 27 -2 3 -1 4 3 1 3 -3 13 1
21 8 13 10 15 9 8 -3 -6 -11 -4 -11 6 1 7 9 15 16 18 16 18 0 50 16 50 25 0 6
-7 5 -17 -3 -16 -13 -17 -12 -4 3 7 10 17 15 22 13 12 -8 49 17 49 33 0 8 -5
10 -12 6 -10 -6 -10 -5 -1 7 15 18 -1 41 -23 32 -8 -3 -14 0 -14 7 0 6 -4 8
-10 5 -5 -3 -10 2 -11 12 0 11 -3 13 -6 5 -4 -9 -10 -7 -23 8 -13 15 -19 17
-23 8 -3 -8 -6 -6 -6 5 -1 10 -5 15 -11 12 -5 -3 -10 -1 -10 5 0 6 -4 8 -10 5
-5 -3 -10 -1 -10 5 0 6 -4 8 -10 5 -5 -3 -10 -1 -10 5 0 6 -4 8 -10 5 -5 -3
-10 1 -10 9 0 9 -4 16 -10 16 -5 0 -10 -4 -10 -10 0 -5 -14 4 -31 21 -16 16
-34 27 -40 24 -5 -4 -9 1 -9 9 0 9 -4 16 -10 16 -5 0 -6 -8 -3 -17 5 -14 3
-13 -14 3 -11 10 -18 23 -15 28 3 5 0 6 -6 2 -6 -3 -18 1 -26 10 -9 9 -24 13
-33 10 -14 -6 -14 -4 -2 10 13 16 12 16 -10 4 -21 -11 -23 -10 -18 4 6 15 -4
20 -40 19 -6 0 -9 6 -6 15 4 9 2 13 -4 9 -6 -4 -19 0 -27 9 -9 8 -16 12 -16 7
0 -4 -7 3 -16 15 -8 12 -20 22 -26 22 -7 0 -3 -7 8 -16 10 -8 -1 -4 -26 10
-30 18 -44 32 -42 43 2 13 1 15 -6 5 -11 -17 -62 4 -62 26 0 12 -2 12 -17 1
-11 -10 -14 -10 -9 -1 4 7 2 12 -5 12 -6 0 -18 8 -25 18 -13 16 -14 16 -8 -3
5 -18 5 -18 -6 -2 -6 10 -16 14 -23 10 -7 -4 -5 2 3 12 8 10 10 16 3 12 -7 -4
-17 0 -23 10 -10 16 -11 16 -6 1 3 -12 1 -15 -10 -11 -7 3 -14 11 -14 19 0 7
-6 11 -14 8 -7 -3 -26 6 -42 21 -15 14 -38 28 -51 31 -12 4 -20 11 -16 17 3 5
1 7 -4 4 -6 -4 -16 0 -23 8 -10 12 -16 13 -28 3 -11 -9 -14 -9 -9 -1 8 13 -31
45 -45 37 -4 -3 -8 0 -8 6 0 7 -7 10 -14 7 -10 -4 -13 -1 -9 9 3 9 -1 14 -12
14 -10 0 -14 -5 -9 -12 3 -7 -5 1 -19 17 -14 17 -28 27 -32 23 -10 -9 -34 15
-27 26 3 5 -2 7 -10 3 -9 -3 -21 0 -27 6 -6 6 -11 8 -11 4 0 -4 -6 -2 -14 5
-8 7 -12 16 -9 20 2 4 -3 5 -11 2 -11 -4 -16 0 -17 12 0 18 -1 17 -9 -1 l-9
-20 0 20 c-1 15 -3 17 -10 6 -7 -11 -9 -11 -13 0 -3 10 -6 10 -12 1z m514
-1296 c0 -3 -4 -8 -10 -11 -5 -3 -10 -1 -10 4 0 6 5 11 10 11 6 0 10 -2 10 -4z"/>
<path d="M5060 5922 c0 -7 -4 -10 -10 -7 -5 3 -10 1 -10 -5 0 -6 -4 -8 -10 -5
-5 3 -10 2 -10 -4 0 -6 -7 -7 -17 -4 -11 4 -14 3 -9 -5 6 -11 -5 -16 -26 -13
-4 0 -5 -6 -2 -14 4 -8 1 -15 -5 -15 -6 0 -11 5 -11 10 0 6 -5 10 -11 10 -5 0
-8 -4 -5 -9 3 -5 -1 -12 -10 -15 -9 -3 -12 -11 -8 -18 5 -8 0 -7 -11 2 -11 9
-16 10 -11 3 4 -8 1 -13 -9 -13 -9 0 -13 -4 -10 -10 3 -6 -1 -7 -9 -4 -9 3
-16 1 -16 -6 0 -6 -4 -8 -10 -5 -5 3 -10 1 -10 -5 0 -7 -7 -10 -15 -7 -8 4
-17 1 -21 -5 -5 -7 -2 -8 6 -3 9 5 11 4 6 -3 -4 -7 -14 -12 -22 -12 -8 0 -14
-4 -14 -9 0 -6 -9 -8 -20 -6 -11 2 -18 0 -15 -6 6 -8 -9 -13 -29 -10 -5 1 -3
-6 5 -15 13 -16 12 -16 -7 -6 -17 9 -23 7 -34 -8 -8 -10 -17 -17 -22 -14 -4 3
-8 0 -8 -7 0 -7 -3 -9 -7 -6 -3 4 -12 -1 -20 -11 -10 -11 -12 -12 -8 -2 4 8
-3 4 -15 -10 -12 -14 -19 -19 -15 -12 6 11 3 11 -13 1 -12 -7 -19 -16 -16 -20
2 -5 -5 -6 -16 -4 -11 2 -24 -3 -30 -13 -5 -9 -10 -13 -10 -8 0 6 -7 1 -16
-10 -8 -10 -13 -12 -9 -4 4 8 -1 6 -9 -4 -9 -11 -16 -16 -16 -12 0 5 -6 3 -13
-3 -8 -6 -17 -8 -21 -4 -4 4 -4 0 0 -10 5 -13 1 -17 -17 -18 -13 -1 -27 -1
-31 0 -4 0 -4 -7 -1 -17 6 -15 5 -16 -13 -2 -10 8 -16 10 -12 6 11 -12 -29
-39 -44 -30 -7 4 -8 3 -4 -4 4 -7 2 -12 -4 -12 -6 0 -8 -5 -5 -10 4 -6 3 -10
-2 -9 -26 4 -44 -2 -37 -13 5 -9 2 -9 -9 1 -15 12 -17 11 -17 -3 0 -9 -6 -15
-12 -13 -7 1 -12 -4 -10 -12 3 -12 1 -12 -14 0 -12 9 -15 9 -10 2 4 -8 2 -13
-4 -13 -6 0 -8 -5 -4 -12 6 -10 4 -10 -8 0 -13 10 -17 10 -22 -3 -3 -9 -10
-13 -16 -10 -6 3 -13 0 -16 -8 -3 -9 -16 -18 -30 -21 -13 -4 -24 -11 -24 -17
0 -8 -5 -7 -15 1 -13 11 -14 10 -9 -4 4 -11 2 -16 -7 -14 -8 2 -13 -2 -12 -9
1 -6 -8 -10 -22 -9 -13 2 -24 0 -23 -3 2 -19 -4 -22 -19 -10 -11 10 -14 10 -9
2 12 -21 -3 -36 -22 -21 -13 11 -15 10 -9 -4 4 -12 1 -18 -9 -18 -8 0 -13 -4
-10 -9 3 -4 -6 -7 -19 -5 -14 1 -23 -2 -19 -7 3 -5 0 -9 -6 -9 -6 0 -8 -5 -4
-12 5 -8 1 -8 -12 2 -10 8 -16 10 -11 5 4 -5 -7 -15 -24 -22 -20 -8 -28 -17
-23 -25 6 -11 5 -11 -8 0 -13 10 -16 9 -21 -8 -3 -11 0 -20 6 -20 7 0 5 -5 -3
-10 -13 -8 -12 -10 3 -10 9 0 17 -4 17 -10 0 -5 7 -10 16 -10 8 0 12 -5 9 -10
-4 -6 -3 -10 2 -9 4 1 19 1 33 0 19 -1 22 -4 11 -10 -11 -7 -3 -12 27 -22 23
-7 42 -16 42 -22 0 -5 7 -7 14 -4 11 4 13 1 9 -11 -6 -15 -5 -15 10 -3 15 12
17 12 11 -3 -4 -9 -3 -16 2 -15 19 3 35 -1 30 -9 -2 -4 5 -9 16 -9 11 -1 27
-10 35 -20 8 -10 11 -11 7 -3 -7 12 -5 13 8 3 8 -7 18 -10 22 -6 4 4 4 -1 0
-11 -6 -15 -4 -17 6 -11 8 5 18 2 26 -10 8 -10 20 -15 29 -11 9 3 13 2 10 -4
-3 -6 -1 -10 5 -10 6 0 8 -4 5 -10 -4 -6 1 -7 11 -3 13 5 15 3 9 -8 -4 -8 -5
-11 0 -7 4 4 14 3 22 -4 7 -6 16 -8 20 -5 3 4 14 -3 24 -15 11 -11 19 -18 19
-14 0 4 7 0 16 -9 14 -13 19 -14 25 -3 6 9 9 5 9 -12 0 -20 2 -22 10 -10 8 13
10 13 10 -2 0 -12 6 -16 20 -13 11 2 18 0 15 -6 -4 -5 1 -9 9 -9 9 0 16 -4 16
-10 0 -5 3 -9 8 -9 19 3 33 -2 27 -11 -3 -5 3 -10 15 -10 12 0 18 -4 15 -10
-4 -6 -3 -9 2 -8 16 4 53 -14 48 -23 -3 -5 1 -6 9 -3 10 4 16 1 16 -7 0 -7 3
-9 7 -6 3 4 12 -2 20 -13 8 -12 20 -17 30 -13 12 5 14 3 8 -7 -5 -8 -4 -11 3
-7 14 9 43 -3 36 -14 -3 -5 2 -9 10 -9 9 0 16 -5 16 -11 0 -8 4 -8 14 0 11 10
16 8 21 -8 4 -12 15 -21 26 -21 12 0 17 -4 13 -11 -4 -8 1 -9 17 -4 20 7 22 6
12 -7 -10 -12 -10 -15 2 -15 8 0 15 5 16 11 0 6 4 1 9 -11 6 -14 18 -23 30
-23 11 0 23 -6 26 -14 3 -8 15 -13 26 -11 14 3 18 0 14 -10 -3 -10 0 -12 11
-8 10 4 14 2 10 -4 -5 -7 2 -10 18 -9 13 2 22 -1 19 -5 -3 -5 0 -9 6 -9 6 0 8
-5 4 -12 -4 -6 -3 -8 4 -4 6 3 13 2 17 -4 3 -5 18 -10 33 -10 17 0 22 -3 15
-8 -9 -6 -6 -11 8 -21 15 -8 19 -9 14 -1 -6 9 -2 9 14 0 12 -6 19 -15 16 -20
-3 -5 4 -8 15 -7 11 1 20 5 20 10 0 4 3 6 8 4 4 -3 8 6 8 19 1 13 -3 24 -10
24 -7 0 -7 3 -1 8 14 10 17 65 4 56 -7 -4 -7 0 0 14 7 14 8 23 1 27 -6 4 -7
12 -3 18 11 18 12 107 1 100 -6 -3 -5 4 1 15 7 14 8 23 1 27 -6 4 -7 12 -3 18
11 18 12 107 1 100 -6 -3 -5 4 1 15 7 14 8 23 1 27 -6 4 -7 12 -3 18 11 18 12
107 1 100 -6 -3 -5 4 1 15 7 14 8 23 1 27 -6 4 -7 12 -3 18 11 18 12 107 1
100 -6 -3 -5 4 1 15 7 14 8 23 1 27 -6 4 -7 12 -3 18 11 18 12 107 1 100 -6
-3 -5 4 1 15 7 14 8 23 1 27 -6 4 -7 12 -3 18 11 18 12 107 1 100 -6 -3 -5 4
1 15 7 14 8 23 1 27 -6 4 -7 12 -3 18 11 18 12 107 1 100 -6 -3 -5 4 1 15 7
14 8 23 1 27 -6 4 -7 12 -3 18 11 18 12 107 1 100 -6 -3 -5 4 1 15 8 14 8 23
1 27 -7 4 -7 11 -2 18 5 7 8 21 6 32 -1 10 2 25 8 33 6 7 7 12 2 11 -20 -3
-24 2 -15 19 6 12 5 21 -5 30 -11 10 -14 10 -14 0 0 -9 -3 -9 -10 2 -7 11 -10
11 -10 2z"/>
<path d="M3375 4950 c-5 -15 -10 -19 -15 -10 -5 8 -10 4 -14 -12 -4 -13 -9
-18 -12 -11 -4 10 -8 10 -19 0 -7 -7 -10 -16 -7 -22 3 -5 -3 -3 -13 5 -17 14
-18 13 -11 -5 4 -11 4 -16 0 -12 -4 4 -14 1 -22 -6 -13 -10 -14 -9 -7 3 8 13
6 13 -8 1 -9 -7 -15 -17 -12 -21 3 -5 -4 -6 -15 -3 -12 3 -20 0 -20 -6 0 -7 5
-9 12 -5 7 4 8 3 4 -5 -6 -9 -11 -9 -24 1 -12 10 -14 10 -8 1 5 -9 0 -13 -14
-13 -15 0 -20 -5 -17 -14 4 -10 0 -14 -14 -11 -10 2 -19 -1 -19 -7 0 -5 -7 -7
-16 -4 -10 4 -13 2 -8 -6 5 -7 0 -9 -14 -6 -14 4 -19 2 -16 -7 3 -7 -2 -15
-11 -19 -11 -4 -14 -2 -10 7 4 6 -3 1 -14 -13 -11 -14 -21 -21 -21 -17 0 4 -9
3 -20 -3 -11 -6 -18 -15 -15 -20 3 -5 -4 -7 -15 -5 -12 2 -23 -2 -27 -11 -3
-8 -12 -13 -19 -10 -8 3 -19 -3 -26 -13 -6 -11 -18 -17 -25 -14 -9 4 -11 0 -6
-13 6 -16 5 -17 -9 -6 -11 9 -18 10 -23 2 -3 -5 -3 -10 2 -10 4 0 0 -5 -10
-11 -9 -5 -22 -7 -29 -3 -7 5 -9 2 -5 -9 4 -11 2 -14 -9 -10 -7 3 -14 0 -14
-7 0 -6 -4 -8 -10 -5 -5 3 -10 1 -10 -5 0 -6 -4 -8 -10 -5 -5 3 -10 -2 -10
-12 0 -14 -2 -15 -9 -4 -5 7 -14 10 -20 7 -6 -4 -9 -11 -7 -15 3 -4 -4 -13
-16 -20 -11 -7 -17 -8 -13 -2 3 6 1 11 -4 11 -11 0 -15 -15 -12 -34 1 -5 -4
-4 -12 3 -12 9 -16 8 -21 -4 -3 -9 -10 -13 -16 -10 -6 3 -13 -1 -16 -9 -3 -9
-13 -16 -21 -16 -9 0 -11 -5 -7 -12 6 -10 5 -10 -7 -1 -9 8 -20 9 -29 3 -8 -6
-10 -10 -5 -10 6 -1 0 -5 -13 -11 -15 -6 -21 -13 -16 -21 6 -10 4 -10 -8 0
-14 11 -18 10 -28 -7 -6 -12 -19 -21 -29 -21 -10 0 -28 -9 -41 -20 -13 -11
-27 -20 -31 -20 -5 0 -17 -7 -26 -15 -10 -8 -21 -14 -25 -13 -4 2 -14 -6 -23
-17 -9 -11 -14 -13 -10 -5 4 10 2 9 -8 -2 -8 -10 -17 -15 -20 -12 -3 3 -10 -3
-16 -15 -7 -12 -19 -18 -31 -16 -11 2 -20 -1 -20 -6 0 -5 -12 -14 -26 -19 -16
-7 -23 -14 -18 -22 6 -10 5 -10 -7 -2 -11 9 -17 9 -26 -1 -6 -7 -9 -17 -5 -21
4 -5 -2 -2 -12 6 -12 9 -17 10 -13 3 5 -8 -1 -15 -17 -19 -13 -3 -27 -12 -30
-20 -3 -8 -10 -14 -16 -14 -6 0 -8 6 -5 13 4 6 -3 1 -14 -12 -12 -13 -21 -20
-21 -15 0 4 -9 -2 -20 -14 -12 -12 -27 -22 -34 -22 -8 0 -19 -6 -25 -14 -7 -8
-28 -17 -47 -21 -25 -4 -34 -10 -30 -20 3 -8 2 -14 -2 -13 -14 4 -57 -15 -68
-31 -7 -8 -9 -22 -6 -30 4 -10 1 -12 -9 -7 -8 4 -6 1 4 -7 13 -11 15 -16 5
-19 -10 -4 -10 -8 -1 -20 10 -11 10 -17 1 -26 -9 -9 -9 -12 3 -12 12 0 12 -2
-1 -10 -12 -8 -13 -13 -3 -29 9 -14 9 -22 2 -27 -8 -4 -7 -9 2 -15 8 -5 9 -9
3 -9 -13 0 -12 -52 1 -62 6 -5 6 -8 -1 -8 -6 0 -10 -10 -9 -22 1 -13 -3 -26
-9 -30 -7 -5 -3 -8 8 -8 16 0 17 -3 8 -12 -15 -15 -16 -32 -1 -22 7 4 7 -1 -1
-16 -9 -18 -9 -24 0 -30 9 -6 8 -9 -6 -13 -17 -4 -17 -5 -1 -6 14 -1 16 -5 7
-20 -7 -14 -7 -22 0 -26 8 -5 7 -11 -1 -21 -9 -11 -8 -14 2 -14 11 0 11 -2 -1
-10 -13 -9 -13 -11 0 -20 14 -9 7 -15 -14 -11 -5 1 -4 -5 4 -13 7 -9 9 -16 5
-16 -4 0 -2 -6 4 -14 8 -10 9 -16 1 -21 -5 -3 -10 -11 -10 -16 0 -6 5 -7 12
-3 7 5 8 3 2 -7 -13 -22 -16 -51 -3 -43 8 4 8 1 1 -12 -15 -28 -15 -36 0 -45
7 -5 8 -9 2 -9 -6 0 -10 -10 -9 -22 1 -13 -3 -26 -9 -30 -7 -5 -3 -8 9 -8 15
0 16 -3 7 -12 -16 -16 -15 -31 1 -22 9 6 9 4 -1 -8 -9 -12 -10 -18 -2 -23 8
-5 8 -11 -1 -21 -9 -11 -8 -14 2 -14 11 0 11 -2 0 -9 -13 -8 -13 -12 0 -27 13
-16 12 -17 -5 -11 -16 6 -17 5 -6 -8 7 -8 9 -15 5 -15 -4 0 -2 -6 4 -14 9 -10
9 -16 1 -21 -8 -5 -8 -11 -1 -19 7 -9 7 -16 -1 -24 -9 -9 -9 -12 3 -12 12 0
12 -2 -1 -10 -12 -8 -13 -13 -3 -29 9 -14 9 -22 2 -27 -8 -4 -7 -9 2 -15 8 -5
10 -9 4 -9 -14 0 -15 -50 -1 -51 6 0 2 -4 -9 -9 -18 -8 -18 -9 -2 -9 14 -1 16
-5 7 -20 -7 -14 -7 -22 0 -26 8 -5 7 -11 -1 -21 -9 -11 -8 -14 2 -14 11 0 11
-2 -1 -10 -13 -9 -13 -11 0 -20 14 -9 7 -15 -14 -11 -5 1 -4 -5 4 -13 7 -9 9
-16 5 -16 -4 0 -2 -6 4 -14 8 -10 9 -16 1 -21 -5 -3 -10 -11 -10 -16 0 -6 5
-7 12 -3 7 5 8 3 2 -7 -13 -22 -16 -51 -3 -43 7 4 7 -1 -1 -16 -9 -18 -9 -24
0 -30 9 -6 8 -9 -6 -13 -17 -4 -17 -5 -1 -6 14 -1 16 -5 7 -20 -7 -14 -7 -22
0 -26 8 -5 7 -11 -1 -21 -9 -11 -8 -14 2 -14 11 0 11 -2 -1 -10 -13 -9 -13
-11 0 -20 14 -9 7 -15 -14 -11 -5 1 -4 -5 4 -13 7 -9 9 -16 5 -16 -4 0 -2 -6
4 -14 8 -10 9 -16 1 -21 -5 -3 -10 -11 -10 -16 0 -6 5 -7 12 -3 7 5 8 3 2 -7
-13 -22 -16 -51 -3 -43 8 4 8 1 1 -12 -15 -28 -15 -36 0 -45 7 -5 8 -9 2 -9
-6 0 -10 -10 -9 -23 1 -12 -3 -25 -9 -29 -7 -5 -3 -8 9 -8 17 0 17 -2 5 -10
-9 -6 -10 -10 -3 -10 6 0 27 -14 45 -30 19 -18 40 -29 51 -26 9 2 17 -1 17 -7
0 -7 15 -21 33 -31 34 -21 39 -23 63 -25 8 0 12 -5 9 -11 -3 -5 3 -10 14 -10
12 0 21 -4 21 -10 0 -5 9 -10 20 -10 11 0 20 -4 20 -10 0 -5 7 -10 16 -10 8 0
12 -5 9 -10 -4 -6 -3 -10 2 -9 22 4 43 -2 38 -11 -3 -5 3 -10 14 -10 12 0 21
-4 21 -10 0 -5 5 -10 11 -10 5 0 7 5 4 10 -10 16 1 11 16 -7 12 -14 12 -16 0
-8 -10 5 -12 4 -7 -3 4 -7 13 -12 21 -12 7 0 16 -6 18 -12 4 -10 6 -10 6 0 1
8 12 2 27 -13 21 -21 29 -24 35 -13 7 10 9 9 9 -4 0 -10 7 -18 16 -18 9 0 12
-5 8 -12 -5 -7 -2 -9 9 -5 9 3 26 -4 42 -19 29 -26 40 -31 30 -11 -4 6 0 4 8
-5 8 -10 17 -15 20 -11 4 3 7 2 7 -4 0 -10 36 -26 52 -24 4 0 4 -7 1 -17 -6
-15 -5 -16 12 -2 11 9 16 10 11 3 -4 -8 -2 -13 6 -13 8 0 23 -7 34 -16 10 -8
13 -12 5 -8 -10 5 -12 3 -7 -5 6 -9 12 -9 24 1 10 7 14 9 10 4 -4 -5 -1 -15 7
-22 17 -17 29 -18 19 -1 -8 13 18 -6 48 -36 10 -9 23 -17 28 -17 6 0 19 -9 30
-20 11 -11 26 -20 33 -20 6 1 1 7 -13 15 -14 8 -20 14 -15 15 19 0 55 -31 49
-42 -4 -6 -2 -8 3 -5 6 4 16 0 23 -8 10 -12 16 -13 27 -3 11 9 13 8 11 -3 -2
-8 3 -13 11 -11 12 3 12 1 1 -13 -12 -14 -10 -15 14 -5 19 7 25 7 21 -1 -4 -6
2 -13 14 -16 11 -3 19 -9 16 -13 -2 -4 7 -6 21 -4 21 2 23 0 13 -12 -9 -12 -6
-14 20 -14 19 0 30 -4 26 -10 -3 -6 0 -10 7 -11 26 -1 50 -8 56 -15 4 -4 -1
-4 -10 -1 -28 10 -21 -1 10 -16 15 -8 33 -12 41 -9 8 3 11 0 7 -7 -4 -6 -2
-11 4 -11 6 0 8 -5 4 -12 -5 -9 -2 -9 9 1 15 12 17 11 17 -3 0 -10 4 -14 10
-11 5 3 10 1 10 -4 0 -6 8 -11 19 -11 10 0 24 -7 31 -15 7 -9 19 -14 27 -11 8
3 11 1 8 -4 -3 -6 1 -10 9 -10 9 0 16 -5 16 -11 0 -6 7 -8 16 -5 15 6 15 4 3
-11 -10 -12 -10 -15 -1 -9 7 4 20 2 29 -6 14 -11 16 -11 9 2 -4 9 -2 8 7 -2 8
-10 17 -15 20 -11 4 3 7 1 7 -5 0 -7 5 -12 11 -12 7 0 18 -8 25 -17 13 -17 14
-17 7 2 -5 16 -2 14 19 -8 26 -28 44 -36 32 -14 -5 9 -4 9 6 0 16 -15 40 -6
40 16 0 13 2 13 9 3 7 -11 13 -9 29 8 12 13 25 19 33 15 8 -5 10 -4 5 3 -4 7
-1 12 7 12 8 0 17 7 21 15 3 8 9 15 13 14 24 -4 45 3 60 20 9 11 20 18 25 15
4 -3 8 0 8 6 0 6 5 8 10 5 6 -3 10 -2 10 2 0 5 9 14 21 21 17 11 20 11 14 0
-4 -7 3 -2 15 12 12 14 18 18 14 10 -7 -13 -5 -13 9 -1 9 7 15 17 12 21 -3 5
6 7 20 5 14 -1 28 2 32 8 4 6 1 7 -7 2 -9 -6 -11 -4 -6 4 5 7 13 10 20 8 14
-6 37 18 28 29 -4 5 1 2 11 -5 12 -9 17 -10 17 -2 0 6 11 16 25 21 14 5 25 15
25 21 0 8 5 8 16 -1 8 -8 14 -9 13 -4 -3 20 2 32 14 31 32 -1 47 4 47 17 0 8
7 17 16 20 10 4 13 2 8 -7 -5 -8 -2 -8 9 2 9 7 14 17 11 22 -3 5 2 6 10 3 9
-4 18 0 22 9 3 9 11 14 19 11 7 -3 15 2 18 10 4 9 14 16 22 16 9 0 13 5 9 11
-4 7 1 7 16 -1 17 -9 21 -9 15 0 -4 7 1 13 13 17 11 3 23 11 26 19 3 8 10 14
16 14 6 0 8 -6 4 -12 -10 -16 26 11 43 32 7 8 13 11 13 6 0 -6 7 -1 16 10 8
10 12 13 8 5 -5 -9 -3 -12 4 -7 7 4 12 15 12 24 0 14 2 14 9 3 7 -11 10 -10
18 4 5 9 13 16 16 16 20 -3 28 0 22 8 -3 5 0 13 6 17 8 4 9 3 5 -4 -4 -7 -1
-12 9 -12 9 0 14 4 11 8 -2 4 9 14 25 21 18 8 26 17 22 24 -5 9 -3 9 8 1 10
-8 18 -6 31 7 9 9 14 19 12 22 -3 2 7 3 21 2 14 -2 23 1 19 6 -3 5 2 9 10 9 8
0 18 5 22 12 5 7 3 8 -6 3 -9 -5 -11 -4 -6 4 6 9 11 9 24 -1 13 -11 15 -10 9
4 -3 10 -2 18 3 18 6 0 10 -6 11 -12 0 -7 4 -3 9 10 5 12 15 22 22 22 9 0 9
-3 -2 -10 -9 -6 -10 -10 -3 -10 7 0 17 8 22 18 6 9 11 13 11 7 0 -5 10 1 21
15 11 14 18 19 14 12 -6 -11 -3 -11 16 0 12 7 31 21 41 31 10 10 23 15 28 12
6 -4 10 -1 10 5 0 6 5 8 10 5 6 -3 10 0 10 8 0 8 8 14 18 13 9 0 16 5 14 12
-2 10 2 10 20 1 20 -11 22 -11 10 3 -10 13 -10 18 -1 24 8 4 9 3 5 -4 -4 -7
-2 -12 3 -12 6 0 11 5 11 12 0 6 3 8 7 5 3 -4 12 1 20 11 12 16 13 16 8 -3 -5
-16 -3 -15 6 3 7 13 18 21 26 18 7 -3 13 -1 13 5 0 6 6 7 13 3 9 -6 9 -5 0 7
-10 12 -8 15 7 15 10 0 16 -5 13 -11 -2 -5 7 2 20 17 14 15 27 25 29 23 2 -2
4 5 5 16 1 11 -3 17 -9 13 -6 -4 -6 1 1 14 7 14 8 23 1 27 -6 4 -7 12 -3 18
11 18 12 107 1 100 -6 -3 -5 4 1 15 7 14 8 23 1 27 -6 4 -7 12 -3 18 11 18 12
107 1 100 -6 -3 -5 4 1 15 7 14 8 23 1 27 -6 4 -7 12 -3 18 11 18 12 107 1
100 -6 -3 -5 4 1 15 7 14 8 23 1 27 -6 4 -7 12 -3 18 11 18 12 107 1 100 -6
-3 -5 4 1 15 7 14 8 23 1 27 -6 4 -7 12 -3 18 11 18 12 107 1 100 -6 -3 -5 4
1 15 7 14 8 23 1 27 -6 4 -7 12 -3 18 11 18 12 107 1 100 -6 -3 -5 4 1 15 7
14 8 23 1 27 -6 4 -7 12 -3 18 11 18 12 107 1 100 -6 -3 -5 4 1 15 7 14 8 23
1 27 -6 4 -7 12 -3 18 11 18 12 107 1 100 -6 -3 -5 4 1 15 7 14 8 23 1 27 -6
4 -7 12 -3 18 11 18 12 107 1 100 -6 -3 -5 4 1 15 7 14 8 23 1 27 -6 4 -7 12
-3 18 11 18 12 107 1 100 -6 -3 -5 4 1 15 7 14 8 23 1 27 -6 4 -7 12 -3 18 11
18 12 107 1 100 -6 -3 -5 4 1 15 7 14 8 23 1 27 -6 4 -7 12 -3 18 4 7 8 37 8
68 1 47 -1 56 -14 51 -10 -4 -13 -1 -8 11 4 12 2 14 -10 10 -12 -5 -14 -3 -8
8 8 12 6 12 -8 0 -16 -12 -17 -12 -10 5 6 17 5 17 -10 5 -16 -12 -17 -12 -10
5 6 17 5 18 -13 4 -10 -8 -16 -11 -12 -6 8 10 -15 36 -32 36 -17 0 -40 26 -32
35 4 5 2 5 -5 1 -6 -3 -14 -2 -17 3 -3 5 -15 7 -26 4 -14 -4 -20 -1 -18 8 2 7
-11 18 -30 24 -18 6 -29 14 -26 18 4 4 -2 7 -14 7 -11 0 -27 9 -35 21 -11 15
-16 17 -20 7 -4 -10 -6 -10 -6 0 -1 6 -8 12 -16 12 -8 0 -15 5 -15 10 0 6 -7
10 -15 10 -8 0 -15 3 -15 8 0 4 -9 13 -20 19 -17 11 -18 10 -13 -5 4 -9 -5 -4
-20 12 -15 16 -27 25 -27 20 0 -5 -5 -1 -11 9 -9 15 -13 16 -27 5 -12 -10 -14
-10 -8 0 4 7 2 12 -4 12 -6 0 -8 5 -4 12 4 6 3 8 -4 4 -6 -3 -17 1 -25 9 -12
11 -17 12 -20 2 -3 -7 -6 -4 -6 7 -1 12 -6 16 -16 12 -8 -3 -15 -1 -15 4 0 6
-7 10 -15 10 -8 0 -15 5 -15 10 0 6 -7 10 -15 10 -8 0 -15 5 -15 11 0 5 -4 8
-8 5 -5 -3 -18 3 -29 13 -28 27 -62 43 -74 35 -6 -3 -13 4 -16 15 -5 18 -8 19
-21 9 -9 -7 -13 -8 -10 -3 3 6 -6 21 -20 35 -14 14 -20 17 -12 7 11 -15 11
-17 -4 -11 -9 3 -16 10 -16 15 0 5 -5 9 -11 9 -5 0 -7 -6 -3 -12 4 -8 3 -10
-2 -5 -5 5 -9 13 -9 19 0 6 -9 12 -20 14 -11 2 -27 12 -36 23 -13 15 -19 17
-29 8 -10 -9 -11 -9 -6 1 5 7 1 12 -9 12 -9 0 -13 5 -10 10 4 6 3 10 -2 9 -20
-3 -34 2 -28 11 4 6 -1 7 -11 3 -12 -4 -15 -3 -10 5 5 8 2 10 -8 6 -9 -3 -16
-1 -16 5 0 6 -7 11 -15 11 -8 0 -15 5 -15 10 0 6 -3 9 -7 9 -22 -4 -33 3 -33
17 0 14 -2 15 -17 3 -11 -10 -14 -10 -9 -1 4 7 2 12 -7 12 -8 0 -17 7 -21 15
-3 8 -15 15 -26 15 -11 0 -20 6 -20 13 0 8 -4 7 -10 -3 -8 -13 -10 -12 -11 5
-1 11 -1 22 -1 25 0 3 -15 5 -34 5 -19 -1 -32 1 -29 3 7 8 -37 42 -46 36 -5
-3 -9 -1 -9 5 0 5 -10 11 -22 13 -13 2 -22 9 -20 16 2 10 -4 11 -19 7 -15 -5
-19 -4 -15 4 5 7 -1 11 -14 11 -12 0 -18 5 -15 10 6 9 -8 14 -27 11 -5 0 -8 4
-8 9 0 6 -7 10 -15 10 -9 0 -18 6 -21 14 -3 9 -12 12 -21 9 -12 -5 -14 -3 -8
7 6 10 3 12 -13 8 -15 -4 -22 -2 -22 8 0 17 -16 19 -26 3 -5 -8 -9 -8 -14 1
-5 9 -10 6 -15 -10z m-472 -285 c-3 -9 -8 -14 -10 -11 -3 3 -2 9 2 15 9 16 15
13 8 -4z"/>
<path d="M1366 3764 c-5 -13 -9 -14 -21 -4 -12 10 -15 9 -15 -4 0 -9 -6 -15
-12 -13 -7 1 -12 -4 -10 -12 3 -12 1 -12 -14 0 -15 12 -17 12 -9 0 6 -11 4
-13 -8 -8 -11 4 -20 -1 -27 -14 -6 -11 -15 -17 -20 -14 -5 3 -14 -4 -20 -15
-6 -11 -14 -19 -18 -19 -16 2 -52 -14 -52 -23 0 -6 -9 -8 -20 -5 -11 3 -18 1
-14 -4 3 -5 0 -9 -6 -9 -6 0 -8 -4 -5 -10 3 -6 -1 -7 -9 -4 -9 3 -16 1 -16 -6
0 -6 -4 -8 -10 -5 -5 3 -10 1 -10 -4 0 -6 -6 -10 -12 -8 -7 1 -12 -4 -10 -11
2 -10 -2 -10 -18 -2 -15 8 -18 8 -14 -4 3 -9 -4 -16 -21 -20 -14 -4 -23 -11
-20 -16 3 -6 -1 -7 -9 -4 -9 4 -16 1 -16 -6 0 -7 -7 -10 -16 -6 -12 5 -15 2
-10 -10 6 -14 4 -15 -9 -4 -13 11 -16 11 -13 1 2 -8 -5 -15 -16 -16 -10 -2
-24 -9 -30 -16 -8 -9 -8 -10 3 -4 9 5 12 4 8 -3 -4 -5 -16 -8 -27 -5 -11 3
-20 0 -20 -6 0 -6 -12 -16 -26 -21 -14 -6 -22 -15 -18 -21 4 -8 0 -8 -15 0
-16 9 -21 9 -19 -1 2 -6 -4 -12 -12 -13 -8 0 -16 -6 -16 -12 -3 -24 -4 -25
-19 -13 -11 9 -15 9 -15 1 0 -7 -5 -9 -10 -6 -6 4 -10 3 -9 -2 3 -20 -2 -25
-16 -13 -13 11 -14 10 -9 -5 5 -13 4 -16 -4 -11 -7 4 -12 2 -12 -4 0 -6 -4 -8
-10 -5 -5 3 -10 1 -10 -5 0 -7 -7 -10 -15 -7 -8 4 -17 1 -21 -5 -5 -7 -2 -8 6
-3 9 5 11 4 6 -3 -4 -7 -13 -12 -20 -12 -8 0 -19 -6 -25 -14 -7 -8 -28 -17
-47 -21 -25 -4 -34 -10 -30 -20 3 -8 2 -14 -2 -13 -16 4 -58 -16 -70 -34 -10
-14 -17 -16 -27 -8 -10 8 -15 8 -21 -1 -5 -8 -3 -9 6 -4 9 5 11 4 6 -3 -4 -7
-14 -12 -22 -12 -8 0 -14 -8 -14 -17 -1 -16 -2 -16 -17 2 -13 16 -15 17 -10 3
4 -12 1 -18 -8 -18 -8 0 -15 -4 -15 -10 0 -5 -6 -9 -13 -7 -6 1 -11 -4 -9 -12
3 -12 0 -12 -12 -2 -13 11 -17 10 -25 -10 -5 -13 -10 -17 -11 -9 0 10 -3 11
-8 4 -4 -6 -24 -19 -45 -29 -30 -14 -35 -20 -26 -31 9 -12 9 -13 -3 -9 -9 4
-15 0 -15 -9 0 -8 5 -12 10 -9 7 4 8 -1 3 -12 -5 -15 -4 -16 9 -5 13 11 16 11
13 -1 -2 -8 3 -13 10 -12 6 2 12 -1 12 -6 0 -9 39 -27 52 -23 3 1 12 -6 20
-16 12 -16 11 -16 -7 -2 -18 14 -19 14 -7 -2 8 -9 20 -14 28 -11 8 3 14 0 14
-6 0 -6 5 -11 11 -11 5 0 7 5 3 12 -4 7 -3 8 5 4 6 -4 9 -11 6 -16 -3 -4 3
-14 12 -21 14 -12 16 -12 9 1 -5 9 -2 8 7 -2 11 -14 16 -15 27 -5 10 9 11 9 6
0 -4 -7 -2 -13 4 -13 6 0 9 -4 6 -8 -2 -4 5 -9 17 -9 12 -1 23 -7 25 -13 2 -5
8 -10 14 -10 6 0 17 -8 25 -17 8 -11 11 -12 7 -3 -7 13 -5 13 9 2 9 -8 22 -10
28 -6 8 5 10 2 6 -9 -3 -9 1 -18 9 -21 22 -9 26 -7 18 6 -4 7 -3 8 5 4 6 -4 8
-12 5 -18 -5 -8 -1 -9 10 -5 10 4 19 1 23 -9 3 -8 12 -13 19 -10 8 3 11 0 7
-10 -4 -10 0 -12 13 -7 12 4 15 3 10 -5 -5 -8 0 -12 13 -12 12 0 21 -4 21 -10
0 -5 9 -10 20 -10 11 0 20 -4 20 -10 0 -5 7 -10 15 -10 8 0 20 -9 27 -19 10
-16 15 -18 27 -8 12 9 13 9 7 0 -4 -8 -1 -13 9 -13 9 0 13 -5 10 -10 -4 -6 -3
-10 2 -9 20 3 34 -2 28 -11 -4 -6 1 -7 11 -3 12 4 15 3 10 -5 -5 -8 -2 -10 8
-6 9 4 18 -1 22 -10 3 -9 10 -13 15 -10 5 3 9 0 9 -5 0 -6 3 -10 8 -10 21 4
32 -2 26 -13 -5 -8 0 -7 11 2 13 10 16 11 11 2 -5 -9 -1 -15 12 -19 11 -3 23
-11 26 -19 3 -8 15 -14 26 -14 11 0 20 -4 20 -10 0 -5 5 -10 11 -10 5 0 7 5 3
12 -4 7 -3 8 5 4 9 -6 9 -11 1 -21 -9 -11 -7 -12 11 -8 14 4 20 2 16 -5 -5 -6
2 -9 18 -8 13 2 22 0 20 -5 -3 -4 -1 -10 5 -14 5 -3 10 0 10 7 0 10 2 10 9 -1
5 -8 7 -21 4 -30 -4 -14 -3 -14 7 -1 9 11 13 12 17 3 2 -7 17 -13 31 -14 25 0
25 -1 7 -10 -17 -8 -16 -9 7 -6 16 3 26 0 25 -7 -1 -6 6 -10 17 -8 10 2 15 -1
12 -7 -4 -6 7 -17 24 -26 16 -8 30 -12 30 -8 0 4 7 -3 16 -15 11 -16 22 -21
36 -16 13 4 18 2 14 -4 -3 -5 3 -12 14 -15 13 -3 18 -1 13 6 -4 7 1 6 10 -2
12 -9 17 -10 17 -2 0 7 5 9 13 5 7 -5 6 0 -3 11 -8 10 -10 16 -4 12 7 -4 15 0
18 9 3 9 2 12 -5 8 -6 -4 -9 1 -8 12 2 11 0 25 -5 33 -6 10 -5 12 2 7 7 -4 12
-1 12 9 0 9 -4 14 -8 11 -4 -2 -8 4 -8 14 0 10 6 16 13 13 9 -4 11 0 7 11 -3
9 -9 14 -13 12 -4 -3 -6 7 -5 22 0 14 6 28 13 30 8 3 6 9 -6 19 -10 8 -13 12
-7 9 12 -6 11 95 -2 115 -4 8 -3 9 5 5 8 -5 10 0 7 18 -3 14 -7 30 -10 35 -4
5 -1 13 5 17 8 5 9 3 4 -6 -5 -9 -4 -11 4 -6 9 6 9 11 0 22 -6 8 -9 17 -6 21
4 3 2 15 -4 26 -7 12 -7 17 -1 13 5 -3 13 1 16 10 3 9 2 12 -5 8 -6 -4 -9 1
-8 12 2 11 0 25 -5 33 -6 10 -5 12 2 7 7 -4 12 -1 12 9 0 9 -4 14 -8 11 -4 -2
-8 4 -8 14 0 10 6 16 13 13 9 -4 11 0 7 11 -3 9 -9 14 -13 12 -4 -3 -6 7 -5
22 0 14 6 28 13 30 8 3 6 9 -6 19 -10 8 -13 12 -7 9 12 -6 11 95 -2 115 -4 8
-3 9 5 5 8 -5 10 0 7 18 -3 14 -7 30 -10 35 -4 5 -1 13 5 17 8 5 9 3 4 -6 -5
-9 -4 -11 4 -6 9 6 9 11 0 22 -6 8 -9 17 -6 21 4 3 2 15 -4 26 -7 12 -7 17 -1
13 5 -3 13 1 16 10 3 9 2 12 -5 8 -6 -4 -9 1 -8 12 2 11 0 25 -5 33 -6 10 -5
12 2 7 7 -4 12 -1 12 9 0 9 -4 14 -8 11 -4 -2 -8 4 -8 14 0 10 6 16 13 13 9
-4 11 0 7 11 -3 9 -9 14 -13 12 -4 -3 -6 7 -5 22 0 14 6 28 13 30 8 3 6 9 -6
19 -10 8 -13 12 -7 9 12 -6 11 95 -2 115 -4 8 -3 9 5 5 12 -8 9 33 -5 55 -4 7
-3 9 3 6 6 -4 14 0 17 9 4 10 2 13 -6 8 -7 -5 -9 0 -6 13 3 11 1 28 -5 38 -6
12 -6 16 1 11 5 -3 13 1 16 10 3 8 2 12 -4 9 -9 -6 -14 8 -11 28 1 5 -3 6 -9
2 -5 -3 -10 -1 -10 4 0 17 -17 13 -24 -5z"/>
<path d="M5067 1643 c6 -16 5 -16 -10 -4 -16 12 -21 8 -18 -12 1 -4 -8 -3 -20
4 -15 8 -19 8 -15 0 4 -6 -1 -14 -11 -18 -10 -3 -22 -13 -26 -20 -7 -12 -11
-12 -25 -1 -9 7 -13 9 -10 3 3 -5 0 -16 -8 -23 -8 -7 -14 -10 -14 -6 0 4 -9
-2 -20 -14 -12 -12 -27 -22 -36 -22 -8 0 -17 -7 -21 -16 -6 -15 -8 -15 -20 2
-12 17 -13 17 -13 -4 0 -15 -5 -20 -15 -16 -12 5 -14 2 -8 -12 6 -17 5 -18
-12 -4 -17 14 -18 13 -12 -2 4 -12 2 -15 -8 -11 -8 3 -18 -2 -21 -11 -3 -9
-10 -13 -16 -10 -5 3 -16 -2 -24 -12 -9 -11 -12 -12 -8 -4 7 13 5 13 -9 1 -9
-7 -15 -17 -12 -21 2 -4 -7 -6 -20 -4 -14 1 -23 -2 -19 -7 3 -5 -2 -9 -10 -9
-8 0 -18 -5 -22 -12 -5 -7 -3 -8 6 -3 9 5 11 4 6 -4 -5 -8 -12 -9 -19 -2 -14
11 -40 -12 -29 -25 4 -5 -1 -2 -11 6 -15 11 -18 11 -15 0 2 -7 -8 -16 -22 -20
-14 -4 -24 -12 -23 -18 2 -7 -4 -9 -14 -5 -10 4 -14 2 -10 -4 5 -7 0 -9 -13
-6 -14 4 -20 0 -20 -12 0 -11 -5 -15 -16 -11 -8 3 -12 2 -9 -4 6 -9 -8 -14
-27 -11 -5 0 -8 -4 -8 -10 0 -5 -4 -7 -10 -4 -5 3 -10 0 -10 -8 0 -8 -8 -14
-17 -13 -10 0 -17 -5 -15 -12 2 -10 -2 -10 -19 -1 -12 6 -19 7 -16 2 2 -4 -5
-17 -16 -28 -11 -11 -16 -13 -12 -5 8 13 6 13 -8 2 -9 -8 -21 -11 -26 -7 -7 4
-8 -1 -4 -11 5 -14 3 -16 -11 -11 -10 4 -15 3 -11 -3 3 -6 -3 -10 -15 -10 -11
0 -23 -7 -27 -16 -3 -8 -12 -13 -20 -10 -9 4 -11 2 -7 -6 5 -8 2 -9 -10 -5
-11 5 -15 3 -10 -5 5 -8 2 -9 -10 -5 -10 4 -15 3 -11 -3 3 -6 -1 -10 -9 -10
-9 0 -16 -8 -16 -17 0 -15 -2 -16 -10 -3 -9 14 -11 13 -14 -9 0 -5 -5 -13 -10
-18 -5 -5 -6 -3 -2 5 4 6 2 12 -3 12 -6 0 -11 -5 -11 -12 0 -6 -3 -8 -7 -5 -3
4 -12 -1 -20 -11 -10 -11 -12 -12 -8 -2 4 8 -3 4 -15 -10 -12 -14 -19 -19 -15
-12 6 11 3 11 -13 1 -12 -7 -19 -16 -16 -20 2 -5 -5 -6 -16 -4 -11 2 -24 -3
-30 -13 -5 -9 -10 -13 -10 -8 0 6 -7 1 -16 -10 -8 -10 -13 -12 -9 -4 4 8 -1 6
-9 -4 -9 -11 -16 -16 -16 -12 0 5 -6 3 -13 -3 -8 -6 -17 -8 -21 -4 -4 4 -4 -1
0 -11 5 -12 4 -17 -2 -13 -6 3 -15 -3 -22 -14 -7 -11 -8 -19 -2 -19 5 0 10 -5
10 -11 0 -5 -6 -7 -12 -4 -7 4 -2 -2 11 -13 14 -11 33 -19 43 -17 10 2 21 -1
24 -7 5 -7 2 -8 -7 -3 -10 6 -11 5 -4 -3 6 -6 22 -13 35 -16 14 -2 24 -9 23
-15 -2 -5 4 -8 12 -5 9 4 15 0 15 -9 0 -9 7 -14 18 -11 9 2 28 -5 42 -17 14
-11 19 -17 11 -13 -9 4 -12 3 -7 -4 4 -6 13 -9 21 -5 8 3 15 0 15 -7 0 -6 5
-8 10 -5 6 3 10 -1 10 -11 0 -14 3 -14 15 -4 13 11 14 10 9 -3 -4 -12 0 -15
20 -13 15 2 29 -1 33 -7 4 -6 1 -7 -8 -2 -12 8 -12 6 0 -8 7 -9 22 -17 32 -17
11 0 19 -4 19 -10 0 -5 7 -10 16 -10 8 0 13 -4 10 -8 -3 -5 0 -9 7 -9 27 -1
43 -9 54 -28 9 -15 12 -16 13 -5 0 12 3 11 11 -3 6 -9 14 -15 20 -12 5 4 9 1
9 -4 0 -6 7 -11 16 -11 9 0 12 -5 8 -12 -4 -7 -4 -10 1 -6 4 4 15 2 23 -5 13
-9 14 -9 8 0 -5 9 -2 11 8 7 9 -3 14 -11 13 -17 -1 -7 4 -11 11 -10 6 2 12 -2
12 -8 0 -5 5 -7 10 -4 6 3 10 1 10 -4 0 -6 6 -10 13 -8 6 1 11 -4 9 -11 -1 -8
2 -11 8 -7 5 3 10 1 10 -6 0 -8 5 -7 17 2 15 12 16 12 10 -4 -6 -15 -3 -17 14
-12 16 5 19 4 14 -6 -6 -9 -3 -11 9 -6 10 4 15 3 11 -3 -3 -6 -1 -10 5 -10 6
0 8 -4 5 -10 -4 -6 1 -7 11 -3 11 4 15 3 11 -4 -5 -7 0 -9 13 -6 14 4 20 0 20
-11 0 -15 17 -21 49 -17 7 2 10 -2 6 -8 -6 -10 40 -36 58 -33 4 1 7 -3 7 -9 0
-6 7 -9 15 -6 8 4 17 1 21 -5 4 -7 3 -8 -4 -4 -7 4 -12 2 -12 -3 0 -10 14 -15
33 -12 4 0 7 -4 7 -10 0 -5 4 -8 9 -5 12 8 52 -29 43 -40 -4 -4 1 -2 11 5 13
10 17 10 17 1 0 -7 7 -10 14 -7 11 4 13 1 9 -10 -4 -11 -2 -14 5 -9 7 4 12 3
12 -2 0 -6 7 -13 16 -16 10 -4 13 -2 9 7 -4 6 -1 5 7 -4 17 -21 74 -50 82 -42
3 4 6 -3 6 -15 0 -12 5 -22 11 -22 5 0 7 4 4 10 -3 6 1 7 9 4 9 -3 16 -10 16
-16 0 -5 5 -6 10 -3 6 3 10 1 10 -4 0 -6 5 -11 11 -11 5 0 8 4 5 9 -4 5 4 7
16 3 16 -4 19 -2 13 8 -6 10 -4 12 11 6 15 -5 16 -4 7 5 -6 6 -9 18 -6 27 5
11 3 13 -7 7 -10 -6 -11 -4 -4 6 11 18 12 40 1 63 -8 16 -6 18 9 12 15 -6 16
-4 7 5 -6 6 -9 18 -6 27 5 11 3 13 -7 7 -9 -6 -11 -4 -5 6 14 21 15 60 3 53
-7 -5 -8 -2 -2 7 12 19 11 41 -1 58 -7 11 -7 13 3 7 6 -4 12 -3 12 3 0 5 -6
12 -12 14 -7 3 -4 6 7 7 19 1 19 1 2 11 -11 7 -15 15 -10 22 11 15 10 38 -1
56 -6 10 -5 12 2 7 7 -4 12 -3 12 3 0 5 -6 12 -12 14 -7 3 -4 6 7 7 19 1 19 1
2 11 -11 7 -15 15 -10 22 11 15 10 38 -1 56 -6 10 -5 12 2 7 7 -4 12 -3 12 3
0 5 -6 12 -12 14 -7 3 -4 6 7 7 19 1 19 1 2 11 -11 7 -15 15 -10 22 11 15 10
38 -1 56 -6 10 -5 12 2 7 7 -4 12 -3 12 3 0 5 -6 12 -12 14 -7 3 -4 6 7 7 19
1 19 1 2 11 -11 7 -15 15 -10 22 11 15 10 38 -1 56 -6 9 -5 12 1 8 6 -4 10 8
10 28 0 19 -5 32 -10 28 -5 -3 -4 4 2 15 7 14 8 23 1 27 -6 4 -7 12 -3 18 11
18 12 107 1 100 -6 -3 -5 4 1 15 7 14 8 23 1 27 -6 4 -7 12 -3 18 11 18 12
107 1 100 -6 -3 -5 4 1 15 7 14 8 23 1 27 -6 4 -7 12 -3 18 11 18 12 107 1
100 -6 -3 -5 4 1 15 7 14 8 23 1 27 -6 4 -7 12 -3 18 11 18 13 68 2 62 -11 -7
0 24 15 44 8 11 8 13 -1 8 -15 -10 -24 5 -13 23 6 9 2 20 -12 32 -26 22 -29
22 -21 1z"/>
<path d="M1722 1638 c-9 -9 -9 -15 1 -27 9 -12 9 -13 0 -7 -7 4 -13 2 -13 -3
0 -6 6 -11 13 -11 8 0 7 -4 -3 -10 -13 -9 -13 -11 0 -20 14 -9 7 -15 -14 -11
-5 1 -4 -4 2 -12 6 -7 10 -23 7 -35 -2 -13 1 -22 8 -22 8 0 8 -3 2 -8 -5 -4
-10 -16 -10 -27 1 -11 -4 -23 -10 -27 -6 -5 -2 -8 10 -8 15 0 16 -3 7 -12 -15
-15 -16 -32 -1 -22 7 4 7 -1 -1 -16 -9 -18 -9 -24 0 -30 9 -6 8 -9 -6 -13 -17
-4 -17 -5 -1 -6 14 -1 16 -5 7 -20 -7 -14 -7 -22 0 -26 8 -5 7 -11 -1 -21 -9
-11 -8 -14 2 -14 11 0 11 -2 -1 -10 -13 -9 -13 -11 0 -20 14 -9 7 -15 -14 -11
-5 1 -4 -5 4 -13 7 -9 9 -16 5 -16 -4 0 -2 -6 4 -14 8 -10 9 -16 1 -21 -5 -3
-10 -11 -10 -16 0 -6 5 -7 12 -3 7 5 8 3 2 -7 -13 -22 -16 -51 -3 -43 7 4 6
-2 -2 -17 -15 -28 -15 -29 3 -40 7 -5 8 -9 2 -9 -6 0 -10 -10 -9 -22 1 -13 -3
-26 -9 -30 -7 -5 -3 -8 9 -8 15 0 16 -3 7 -12 -16 -16 -15 -31 1 -22 9 6 9 4
-1 -8 -9 -12 -10 -18 -2 -23 8 -5 8 -11 -1 -21 -9 -11 -8 -14 2 -14 11 0 11
-2 0 -9 -13 -8 -13 -12 0 -27 13 -16 12 -17 -5 -11 -16 6 -17 5 -6 -8 7 -8 9
-15 4 -15 -4 0 -3 -5 4 -12 8 -8 8 -15 1 -24 -7 -8 -7 -14 1 -19 8 -5 8 -11
-1 -21 -9 -11 -8 -14 2 -14 11 0 11 -2 -1 -10 -12 -8 -13 -13 -3 -29 9 -14 9
-22 2 -27 -8 -4 -7 -9 2 -15 8 -5 9 -9 3 -9 -13 0 -12 -52 1 -62 6 -5 6 -8 -1
-8 -6 0 -10 -10 -9 -23 1 -12 -3 -25 -9 -29 -7 -5 -3 -8 8 -8 16 0 17 -3 8
-12 -15 -15 -16 -32 -1 -22 7 4 7 -1 -1 -16 -9 -18 -9 -24 0 -30 9 -6 8 -9 -6
-13 -17 -4 -17 -5 -1 -6 14 -1 16 -5 7 -20 -7 -14 -7 -22 0 -26 8 -5 7 -11 -1
-21 -9 -11 -8 -14 2 -14 11 0 11 -2 -1 -10 -12 -8 -13 -13 -3 -29 9 -14 9 -22
2 -27 -8 -4 -7 -9 2 -15 8 -5 10 -9 4 -9 -5 0 -11 -11 -11 -25 -1 -14 3 -25 9
-25 6 0 2 -7 -9 -15 -18 -15 -18 -15 0 -8 12 4 17 3 13 -4 -4 -6 2 -13 13 -16
11 -3 20 -1 20 4 0 5 3 9 8 8 16 -2 52 14 52 23 0 6 9 8 20 5 11 -3 18 -1 14
4 -3 5 0 9 6 9 6 0 8 6 4 13 -4 6 -4 9 1 5 4 -4 14 -3 21 2 6 6 18 9 25 8 7
-2 13 2 14 9 0 6 4 15 9 20 5 5 6 3 2 -4 -4 -7 -2 -13 3 -13 6 0 11 4 11 9 0
5 14 14 30 20 18 6 30 17 30 28 0 14 2 15 9 4 6 -9 11 -10 15 -2 4 6 12 8 18
5 7 -4 8 -2 4 4 -4 7 -1 12 7 12 19 0 62 22 67 35 3 6 11 9 18 8 8 0 11 5 7
14 -5 14 -3 14 12 2 9 -8 14 -9 10 -3 -4 7 2 14 14 17 13 4 18 10 14 17 -6 9
-2 9 15 0 15 -8 20 -8 16 -1 -4 6 -2 11 4 11 6 0 8 5 4 13 -5 7 0 6 11 -3 10
-8 16 -10 12 -3 -5 8 1 15 17 19 13 3 27 12 30 21 3 8 15 13 28 11 17 -2 22 1
20 14 -2 12 2 16 12 12 9 -3 23 1 32 10 8 9 19 14 24 11 5 -3 15 4 23 15 7 11
17 17 20 13 4 -3 7 -1 7 6 0 7 5 9 10 6 6 -3 10 2 11 12 0 10 3 13 6 6 2 -7 9
-13 14 -13 6 0 7 5 4 10 -3 6 1 10 10 10 9 0 14 4 10 9 -3 5 0 13 6 17 8 4 9
3 5 -4 -11 -19 5 -14 21 6 10 11 12 12 8 2 -5 -12 -4 -12 7 1 7 9 19 14 27 11
8 -2 11 0 8 5 -3 5 3 15 15 22 16 10 19 10 13 -1 -4 -7 3 -2 15 12 12 14 19
19 15 11 -9 -16 43 16 63 39 12 13 12 13 6 0 -10 -18 43 14 64 39 8 9 10 10 7
2 -5 -9 1 -8 19 4 14 9 24 21 21 25 -3 5 6 7 20 4 19 -3 23 -1 19 11 -5 11 -2
13 10 9 11 -4 16 -1 16 11 0 14 3 15 15 5 10 -9 15 -9 15 -1 0 6 6 11 14 11 8
0 17 7 20 16 4 9 13 14 22 10 8 -3 12 -2 9 4 -3 6 3 10 15 10 12 0 18 4 15 11
-4 6 0 9 10 7 27 -5 27 29 -1 60 -20 22 -23 23 -18 7 4 -17 3 -16 -8 3 -8 12
-17 19 -21 16 -4 -4 -7 -2 -7 5 0 7 -4 9 -10 6 -5 -3 -10 -1 -10 4 0 6 -7 11
-16 11 -8 0 -12 5 -9 10 4 6 3 10 -2 9 -4 -1 -19 -1 -33 0 -20 1 -22 3 -10 11
12 8 10 10 -8 10 -13 0 -20 4 -17 10 4 6 -1 7 -11 3 -14 -5 -16 -3 -11 10 6
15 4 16 -14 6 -11 -6 -23 -8 -27 -5 -3 3 -2 6 2 6 4 0 1 7 -8 15 -8 8 -19 15
-25 15 -6 0 -11 6 -11 13 0 8 -4 7 -10 -3 -8 -13 -10 -12 -10 3 0 10 -4 15
-10 12 -5 -3 -10 -1 -10 6 0 7 -3 9 -7 6 -3 -4 -12 1 -20 11 -8 9 -12 11 -8 5
10 -21 -5 -15 -27 10 -11 12 -16 15 -12 7 8 -15 -34 15 -48 35 -7 10 -12 11
-44 14 -12 1 -14 4 -6 14 8 10 6 13 -8 13 -10 0 -16 -5 -14 -11 3 -5 0 -3 -8
6 -7 9 -20 14 -28 11 -13 -5 -13 -3 0 13 14 16 13 17 -8 11 -14 -5 -22 -3 -22
4 0 6 -4 8 -10 5 -5 -3 -10 -1 -10 5 0 6 -5 8 -12 4 -8 -5 -9 -2 -4 11 5 15 4
16 -9 5 -12 -10 -15 -10 -15 0 0 7 -7 10 -14 7 -11 -4 -13 -1 -9 11 6 15 5 15
-10 3 -15 -12 -17 -12 -11 4 5 13 4 16 -4 11 -7 -4 -12 -2 -12 4 0 6 -4 8 -10
5 -5 -3 -10 -2 -10 3 0 13 -50 33 -62 26 -6 -4 -8 -2 -4 4 3 6 2 13 -4 17 -5
3 -10 0 -10 -7 0 -10 -2 -10 -9 1 -5 8 -7 21 -4 30 4 14 3 14 -7 1 -9 -11 -13
-12 -17 -2 -2 6 -17 12 -31 13 -25 0 -25 1 -7 10 17 8 16 9 -7 6 -16 -3 -26 0
-25 7 1 6 -6 10 -17 8 -12 -2 -16 1 -10 9 5 9 2 10 -9 6 -10 -4 -16 -2 -14 6
1 7 -4 11 -10 10 -7 -2 -13 2 -13 9 0 6 -3 8 -7 5 -3 -4 -13 2 -20 13 -10 15
-21 19 -35 14 -14 -4 -18 -2 -14 5 4 6 0 11 -8 11 -9 0 -16 5 -16 11 0 5 -4 7
-10 4 -5 -3 -10 -2 -10 4 0 6 -7 7 -17 4 -10 -4 -14 -2 -10 4 4 6 -6 16 -24
22 -19 7 -28 15 -23 22 5 8 3 9 -6 4 -7 -4 -15 -2 -20 4 -4 7 -16 14 -26 15
-10 2 -18 9 -17 14 2 7 -4 9 -14 5 -11 -5 -14 -3 -8 6 6 10 3 11 -14 2 -17 -9
-20 -9 -15 3 6 16 -11 16 -35 2 -10 -6 -12 -5 -7 2 9 15 3 15 -12 0z m368
-1358 c0 -5 -5 -10 -11 -10 -5 0 -7 5 -4 10 3 6 8 10 11 10 2 0 4 -4 4 -10z"/>
</g>
</svg>
